<svg width="16" height="14" viewBox="0 0 16 14" fill="none" xmlns="http://www.w3.org/2000/svg">
<path d="M15.8043 6.71449C14.2625 4.43591 11.7764 1.40625 7.9996 1.40625C6.90388 1.40625 5.91671 1.66215 5.03015 2.08048L5.81213 2.86245C6.52121 2.57723 7.24694 2.437 8.00039 2.437C10.4287 2.437 12.5805 3.89003 14.7537 7.00367C14.0193 8.05502 13.288 8.91702 12.5473 9.59758L13.2809 10.3312C14.3124 9.37812 15.1459 8.26656 15.8051 7.29206L16 7.00367L15.8051 6.71529L15.8043 6.71449Z" fill="#77858F"/>
<path d="M7.9996 11.5739C5.57128 11.5739 3.41946 10.1209 1.24625 7.00724C1.9799 5.95589 2.71196 5.0939 3.45274 4.41333L2.71909 3.67969C1.68755 4.63279 0.854073 5.74436 0.1949 6.71886L0 7.00724L0.1949 7.29563C1.73667 9.57422 4.22283 12.6039 7.9996 12.6039C9.09532 12.6039 10.0825 12.348 10.9691 11.9296L10.1871 11.1477C9.47799 11.4329 8.75226 11.5731 7.99881 11.5731L7.9996 11.5739Z" fill="#77858F"/>
<path d="M4.73699 5.6961C4.57378 6.10096 4.48267 6.54305 4.48267 7.00574C4.48267 8.94523 6.06009 10.5226 7.99958 10.5226C8.46226 10.5226 8.90435 10.4315 9.30921 10.2683L8.48524 9.44436C8.32758 9.47526 8.16516 9.49269 7.99878 9.49269C6.62736 9.49269 5.51183 8.37716 5.51183 7.00574C5.51183 6.83936 5.52847 6.67694 5.56016 6.51928L4.73619 5.69531L4.73699 5.6961Z" fill="#77858F"/>
<path d="M11.263 8.31171C11.4262 7.90686 11.5173 7.46477 11.5173 7.00129C11.5173 5.0618 9.93985 3.48438 8.00036 3.48438C7.53768 3.48438 7.09559 3.57549 6.68994 3.7387L7.51391 4.56266C7.67157 4.53097 7.83399 4.51433 8.00036 4.51433C9.37179 4.51433 10.4873 5.62986 10.4873 7.00129C10.4873 7.16766 10.4707 7.33008 10.439 7.48774L11.263 8.31171Z" fill="#77858F"/>
<path d="M2.02166 0.30299L1.30121 1.02344L13.9774 13.6996L14.6978 12.9792L2.02166 0.30299Z" fill="#77858F"/>
</svg>
