<svg width="14" height="10" viewBox="0 0 14 10" fill="none" xmlns="http://www.w3.org/2000/svg">
<g clip-path="url(#clip0_5164_63609)">
<path d="M3.20539 3.69102C3.20539 3.69102 3.62723 2.01595 4.18742 0.832249C4.29482 0.494186 4.10325 0.13422 3.75978 0.0294683C3.515 -0.0457626 3.25957 0.0275637 3.09413 0.198024C0.870767 2.59208 0 5.40991 0 6.84501C0 8.5877 1.43386 9.99995 3.20539 9.99995C4.97692 9.99995 6.40981 8.5877 6.40981 6.84596C6.40981 5.10422 4.97498 3.69198 3.20539 3.69198V3.69102Z" fill="#77858F"/>
<path d="M10.7966 3.69102C10.7966 3.69102 11.2184 2.01595 11.7786 0.832249C11.886 0.494186 11.6944 0.13422 11.351 0.0294683C11.1081 -0.0457626 10.8517 0.0275637 10.6853 0.198024C8.46195 2.59303 7.59021 5.40991 7.59021 6.84501C7.59021 8.58675 9.02504 9.999 10.7966 9.999C12.5681 9.999 14 8.58675 14 6.84501C14 5.10327 12.5662 3.69102 10.7966 3.69102Z" fill="#77858F"/>
</g>
<defs>
<clipPath id="clip0_5164_63609">
<rect width="14" height="10" fill="white"/>
</clipPath>
</defs>
</svg>
